<svg width="113" height="112" viewBox="0 0 113 112" fill="none" xmlns="http://www.w3.org/2000/svg">
<g filter="url(#filter0_d)">
<circle cx="56.4764" cy="55.8347" r="35.8347" fill="url(#paint0_linear)"/>
<circle cx="56.4764" cy="55.8347" r="35.8347" fill="url(#paint1_radial)"/>
<circle cx="56.4764" cy="55.8347" r="35.8347" fill="url(#paint2_radial)"/>
</g>
<path opacity="0.7" d="M51.3869 65C50.4109 65 49.5709 64.656 48.8669 63.968C48.1789 63.264 47.8349 62.424 47.8349 61.448V51.272C47.8349 50.296 48.1789 49.464 48.8669 48.776C49.5709 48.072 50.4109 47.72 51.3869 47.72H61.5629C62.5229 47.72 63.3549 48.072 64.0589 48.776C64.7629 49.464 65.1149 50.296 65.1149 51.272V61.448C65.1149 62.424 64.7629 63.264 64.0589 63.968C63.3549 64.656 62.5229 65 61.5629 65H51.3869ZM52.3469 61.256H60.5549C61.0829 61.256 61.3469 61.256 61.3469 61.256C61.3469 61.256 61.3469 60.992 61.3469 60.464V52.256C61.3469 51.728 61.3469 51.464 61.3469 51.464C61.3469 51.464 61.0829 51.464 60.5549 51.464H52.3469C51.8189 51.464 51.5549 51.464 51.5549 51.464C51.5549 51.464 51.5549 51.728 51.5549 52.256V60.464C51.5549 60.992 51.5549 61.256 51.5549 61.256C51.5549 61.256 51.8189 61.256 52.3469 61.256Z" fill="#17597E"/>
<defs>
<filter id="filter0_d" x="0.641663" y="-3.05176e-05" width="111.669" height="111.669" filterUnits="userSpaceOnUse" color-interpolation-filters="sRGB">
<feFlood flood-opacity="0" result="BackgroundImageFix"/>
<feColorMatrix in="SourceAlpha" type="matrix" values="0 0 0 0 0 0 0 0 0 0 0 0 0 0 0 0 0 0 127 0"/>
<feOffset/>
<feGaussianBlur stdDeviation="10"/>
<feColorMatrix type="matrix" values="0 0 0 0 0.0333333 0 0 0 0 0.0333333 0 0 0 0 0.0333333 0 0 0 0.15 0"/>
<feBlend mode="normal" in2="BackgroundImageFix" result="effect1_dropShadow"/>
<feBlend mode="normal" in="SourceGraphic" in2="effect1_dropShadow" result="shape"/>
</filter>
<linearGradient id="paint0_linear" x1="31.449" y1="28.8165" x2="67.5681" y2="89.1098" gradientUnits="userSpaceOnUse">
<stop stop-color="#E1F0FD"/>
<stop offset="1" stop-color="#005C91"/>
</linearGradient>
<radialGradient id="paint1_radial" cx="0" cy="0" r="1" gradientUnits="userSpaceOnUse" gradientTransform="translate(38.559 24.7779) rotate(52.5653) scale(72.7082)">
<stop stop-color="#8FD7FF" stop-opacity="0.7"/>
<stop offset="0.848958" stop-color="#005280" stop-opacity="0"/>
</radialGradient>
<radialGradient id="paint2_radial" cx="0" cy="0" r="1" gradientUnits="userSpaceOnUse" gradientTransform="translate(37.1287 83.4535) rotate(10.0503) scale(55.8674)">
<stop stop-color="white" stop-opacity="0.3"/>
<stop offset="0.848958" stop-color="white" stop-opacity="0"/>
</radialGradient>
</defs>
</svg>
